<svg xmlns="http://www.w3.org/2000/svg" viewBox="0 0 19.05 19.05"><defs><style>.cls-1{fill:#FFFFFF;}</style></defs><title>MyAccount</title><g id="Layer_2" data-name="Layer 2"><g id="Layer_1-2" data-name="Layer 1"><g id="Layer_2-2" data-name="Layer 2"><g id="Layer_1-2-2" data-name="Layer 1-2"><path class="cls-1" d="M11.94,11.26h-.19a3.07,3.07,0,0,1-4.42,0C6.14,11.44,4.1,13,4.1,14h0c1.72,2.91,8.15,3.66,10.85,0h0C15,13,13.09,11.26,11.94,11.26Z"/><path class="cls-1" d="M12.54,7.12c0,2.07-.89,4.49-3,4.49s-3-2.41-3-4.49a3,3,0,0,1,3-3.23A3,3,0,0,1,12.54,7.12Z"/></g></g><path class="cls-1" d="M9.52,19.05A9.53,9.53,0,1,1,19,9.53,9.54,9.54,0,0,1,9.52,19.05Zm0-17.18a7.65,7.65,0,1,0,7.65,7.65A7.66,7.66,0,0,0,9.52,1.87Z"/></g></g></svg>